<mxfile host="app.diagrams.net" modified="2022-09-07T07:24:31.784Z" agent="5.0 (Macintosh; Intel Mac OS X 10_15_7) AppleWebKit/605.1.15 (KHTML, like Gecko) Version/15.1 Safari/605.1.15" etag="iPJ2D_G0lF6na9zJMbQW" version="20.2.8" type="github">
  <diagram id="jNDimxEwxBB8IUnM0b9Q" name="Page-1">
    <mxGraphModel dx="946" dy="662" grid="1" gridSize="10" guides="1" tooltips="1" connect="1" arrows="1" fold="1" page="1" pageScale="1" pageWidth="827" pageHeight="1169" background="none" math="0" shadow="0">
      <root>
        <mxCell id="0" />
        <mxCell id="1" parent="0" />
        <mxCell id="Vzbd2Vlic11tbJOyJbIw-4" value="" style="edgeStyle=orthogonalEdgeStyle;rounded=0;orthogonalLoop=1;jettySize=auto;html=1;" edge="1" parent="1" source="Vzbd2Vlic11tbJOyJbIw-2">
          <mxGeometry relative="1" as="geometry">
            <mxPoint x="359" y="120" as="targetPoint" />
          </mxGeometry>
        </mxCell>
        <mxCell id="Vzbd2Vlic11tbJOyJbIw-2" value="Start" style="rounded=1;whiteSpace=wrap;html=1;" vertex="1" parent="1">
          <mxGeometry x="304" y="40" width="110" height="40" as="geometry" />
        </mxCell>
        <mxCell id="Vzbd2Vlic11tbJOyJbIw-7" value="" style="edgeStyle=orthogonalEdgeStyle;rounded=0;orthogonalLoop=1;jettySize=auto;html=1;entryX=0.5;entryY=0;entryDx=0;entryDy=0;" edge="1" parent="1" source="Vzbd2Vlic11tbJOyJbIw-5" target="Vzbd2Vlic11tbJOyJbIw-19">
          <mxGeometry relative="1" as="geometry">
            <mxPoint x="359" y="250" as="targetPoint" />
          </mxGeometry>
        </mxCell>
        <mxCell id="Vzbd2Vlic11tbJOyJbIw-5" value="num1,num2,num3,num4" style="shape=parallelogram;perimeter=parallelogramPerimeter;whiteSpace=wrap;html=1;fixedSize=1;" vertex="1" parent="1">
          <mxGeometry x="277" y="120" width="164" height="60" as="geometry" />
        </mxCell>
        <mxCell id="Vzbd2Vlic11tbJOyJbIw-11" value="" style="edgeStyle=orthogonalEdgeStyle;rounded=0;orthogonalLoop=1;jettySize=auto;html=1;" edge="1" parent="1" source="Vzbd2Vlic11tbJOyJbIw-8">
          <mxGeometry relative="1" as="geometry">
            <mxPoint x="554.5" y="360" as="targetPoint" />
          </mxGeometry>
        </mxCell>
        <mxCell id="Vzbd2Vlic11tbJOyJbIw-37" value="" style="edgeStyle=orthogonalEdgeStyle;rounded=0;orthogonalLoop=1;jettySize=auto;html=1;" edge="1" parent="1" source="Vzbd2Vlic11tbJOyJbIw-8" target="Vzbd2Vlic11tbJOyJbIw-29">
          <mxGeometry relative="1" as="geometry" />
        </mxCell>
        <mxCell id="Vzbd2Vlic11tbJOyJbIw-8" value="num2&amp;lt;min" style="rhombus;whiteSpace=wrap;html=1;" vertex="1" parent="1">
          <mxGeometry x="271.25" y="320" width="175.5" height="80" as="geometry" />
        </mxCell>
        <mxCell id="Vzbd2Vlic11tbJOyJbIw-12" value="No" style="text;html=1;align=center;verticalAlign=middle;resizable=0;points=[];autosize=1;strokeColor=none;fillColor=none;" vertex="1" parent="1">
          <mxGeometry x="490" y="325" width="40" height="30" as="geometry" />
        </mxCell>
        <mxCell id="Vzbd2Vlic11tbJOyJbIw-15" value="Yes" style="text;html=1;align=center;verticalAlign=middle;resizable=0;points=[];autosize=1;strokeColor=none;fillColor=none;" vertex="1" parent="1">
          <mxGeometry x="360" y="430" width="40" height="30" as="geometry" />
        </mxCell>
        <mxCell id="Vzbd2Vlic11tbJOyJbIw-26" value="" style="edgeStyle=orthogonalEdgeStyle;rounded=0;orthogonalLoop=1;jettySize=auto;html=1;" edge="1" parent="1" source="Vzbd2Vlic11tbJOyJbIw-19" target="Vzbd2Vlic11tbJOyJbIw-8">
          <mxGeometry relative="1" as="geometry" />
        </mxCell>
        <mxCell id="Vzbd2Vlic11tbJOyJbIw-19" value="num1=min" style="whiteSpace=wrap;html=1;" vertex="1" parent="1">
          <mxGeometry x="299" y="220" width="120" height="60" as="geometry" />
        </mxCell>
        <mxCell id="Vzbd2Vlic11tbJOyJbIw-63" value="" style="edgeStyle=orthogonalEdgeStyle;rounded=0;orthogonalLoop=1;jettySize=auto;html=1;" edge="1" parent="1" source="Vzbd2Vlic11tbJOyJbIw-29" target="Vzbd2Vlic11tbJOyJbIw-30">
          <mxGeometry relative="1" as="geometry" />
        </mxCell>
        <mxCell id="Vzbd2Vlic11tbJOyJbIw-29" value="num2=min" style="shape=document;whiteSpace=wrap;html=1;boundedLbl=1;" vertex="1" parent="1">
          <mxGeometry x="299" y="440" width="120" height="80" as="geometry" />
        </mxCell>
        <mxCell id="Vzbd2Vlic11tbJOyJbIw-33" value="" style="edgeStyle=orthogonalEdgeStyle;rounded=0;orthogonalLoop=1;jettySize=auto;html=1;entryX=0;entryY=0.5;entryDx=0;entryDy=0;" edge="1" parent="1" source="Vzbd2Vlic11tbJOyJbIw-30" target="Vzbd2Vlic11tbJOyJbIw-57">
          <mxGeometry relative="1" as="geometry">
            <mxPoint x="552" y="610" as="targetPoint" />
          </mxGeometry>
        </mxCell>
        <mxCell id="Vzbd2Vlic11tbJOyJbIw-36" value="" style="edgeStyle=orthogonalEdgeStyle;rounded=0;orthogonalLoop=1;jettySize=auto;html=1;" edge="1" parent="1" source="Vzbd2Vlic11tbJOyJbIw-30">
          <mxGeometry relative="1" as="geometry">
            <mxPoint x="359" y="690" as="targetPoint" />
          </mxGeometry>
        </mxCell>
        <mxCell id="Vzbd2Vlic11tbJOyJbIw-30" value="num3&amp;lt;min" style="rhombus;whiteSpace=wrap;html=1;" vertex="1" parent="1">
          <mxGeometry x="274" y="570" width="170" height="80" as="geometry" />
        </mxCell>
        <mxCell id="Vzbd2Vlic11tbJOyJbIw-34" value="No" style="text;html=1;align=center;verticalAlign=middle;resizable=0;points=[];autosize=1;strokeColor=none;fillColor=none;" vertex="1" parent="1">
          <mxGeometry x="458" y="575" width="40" height="30" as="geometry" />
        </mxCell>
        <mxCell id="Vzbd2Vlic11tbJOyJbIw-38" value="Yes" style="text;html=1;align=center;verticalAlign=middle;resizable=0;points=[];autosize=1;strokeColor=none;fillColor=none;" vertex="1" parent="1">
          <mxGeometry x="350" y="395" width="40" height="30" as="geometry" />
        </mxCell>
        <mxCell id="Vzbd2Vlic11tbJOyJbIw-39" value="Yes" style="text;html=1;align=center;verticalAlign=middle;resizable=0;points=[];autosize=1;strokeColor=none;fillColor=none;" vertex="1" parent="1">
          <mxGeometry x="350" y="655" width="40" height="30" as="geometry" />
        </mxCell>
        <mxCell id="Vzbd2Vlic11tbJOyJbIw-43" value="" style="edgeStyle=orthogonalEdgeStyle;rounded=0;orthogonalLoop=1;jettySize=auto;html=1;" edge="1" parent="1" source="Vzbd2Vlic11tbJOyJbIw-40">
          <mxGeometry relative="1" as="geometry">
            <mxPoint x="560" y="850" as="targetPoint" />
          </mxGeometry>
        </mxCell>
        <mxCell id="Vzbd2Vlic11tbJOyJbIw-45" value="" style="edgeStyle=orthogonalEdgeStyle;rounded=0;orthogonalLoop=1;jettySize=auto;html=1;" edge="1" parent="1" source="Vzbd2Vlic11tbJOyJbIw-40">
          <mxGeometry relative="1" as="geometry">
            <mxPoint x="359" y="970" as="targetPoint" />
          </mxGeometry>
        </mxCell>
        <mxCell id="Vzbd2Vlic11tbJOyJbIw-40" value="num4&amp;lt;min" style="rhombus;whiteSpace=wrap;html=1;" vertex="1" parent="1">
          <mxGeometry x="259" y="810" width="200" height="80" as="geometry" />
        </mxCell>
        <mxCell id="Vzbd2Vlic11tbJOyJbIw-50" style="edgeStyle=orthogonalEdgeStyle;rounded=0;orthogonalLoop=1;jettySize=auto;html=1;exitX=0.5;exitY=1;exitDx=0;exitDy=0;" edge="1" parent="1" source="Vzbd2Vlic11tbJOyJbIw-58">
          <mxGeometry relative="1" as="geometry">
            <mxPoint x="360" y="1110" as="targetPoint" />
            <mxPoint x="620" y="890" as="sourcePoint" />
            <Array as="points">
              <mxPoint x="620" y="1110" />
            </Array>
          </mxGeometry>
        </mxCell>
        <mxCell id="Vzbd2Vlic11tbJOyJbIw-54" value="" style="edgeStyle=orthogonalEdgeStyle;rounded=0;orthogonalLoop=1;jettySize=auto;html=1;exitX=0.5;exitY=1;exitDx=0;exitDy=0;" edge="1" parent="1" source="Vzbd2Vlic11tbJOyJbIw-60" target="Vzbd2Vlic11tbJOyJbIw-52">
          <mxGeometry relative="1" as="geometry">
            <mxPoint x="359" y="1050" as="sourcePoint" />
          </mxGeometry>
        </mxCell>
        <mxCell id="Vzbd2Vlic11tbJOyJbIw-46" value="Finish" style="rounded=1;whiteSpace=wrap;html=1;" vertex="1" parent="1">
          <mxGeometry x="299" y="1250" width="120" height="60" as="geometry" />
        </mxCell>
        <mxCell id="Vzbd2Vlic11tbJOyJbIw-48" value="No" style="text;html=1;align=center;verticalAlign=middle;resizable=0;points=[];autosize=1;strokeColor=none;fillColor=none;" vertex="1" parent="1">
          <mxGeometry x="480" y="815" width="40" height="30" as="geometry" />
        </mxCell>
        <mxCell id="Vzbd2Vlic11tbJOyJbIw-49" value="Yes" style="text;html=1;align=center;verticalAlign=middle;resizable=0;points=[];autosize=1;strokeColor=none;fillColor=none;" vertex="1" parent="1">
          <mxGeometry x="350" y="915" width="40" height="30" as="geometry" />
        </mxCell>
        <mxCell id="Vzbd2Vlic11tbJOyJbIw-55" value="" style="edgeStyle=orthogonalEdgeStyle;rounded=0;orthogonalLoop=1;jettySize=auto;html=1;" edge="1" parent="1" source="Vzbd2Vlic11tbJOyJbIw-52" target="Vzbd2Vlic11tbJOyJbIw-46">
          <mxGeometry relative="1" as="geometry" />
        </mxCell>
        <mxCell id="Vzbd2Vlic11tbJOyJbIw-52" value="print(min)" style="shape=document;whiteSpace=wrap;html=1;boundedLbl=1;" vertex="1" parent="1">
          <mxGeometry x="299" y="1150" width="120" height="80" as="geometry" />
        </mxCell>
        <mxCell id="Vzbd2Vlic11tbJOyJbIw-56" value="num1=min" style="rounded=0;whiteSpace=wrap;html=1;" vertex="1" parent="1">
          <mxGeometry x="560" y="330" width="120" height="60" as="geometry" />
        </mxCell>
        <mxCell id="Vzbd2Vlic11tbJOyJbIw-57" value="num2=min" style="rounded=0;whiteSpace=wrap;html=1;" vertex="1" parent="1">
          <mxGeometry x="560" y="580" width="120" height="60" as="geometry" />
        </mxCell>
        <mxCell id="Vzbd2Vlic11tbJOyJbIw-58" value="num3=min" style="rounded=0;whiteSpace=wrap;html=1;" vertex="1" parent="1">
          <mxGeometry x="560" y="815" width="120" height="60" as="geometry" />
        </mxCell>
        <mxCell id="Vzbd2Vlic11tbJOyJbIw-61" value="" style="edgeStyle=orthogonalEdgeStyle;rounded=0;orthogonalLoop=1;jettySize=auto;html=1;" edge="1" parent="1" source="Vzbd2Vlic11tbJOyJbIw-59" target="Vzbd2Vlic11tbJOyJbIw-40">
          <mxGeometry relative="1" as="geometry" />
        </mxCell>
        <mxCell id="Vzbd2Vlic11tbJOyJbIw-59" value="num3=min" style="rounded=0;whiteSpace=wrap;html=1;" vertex="1" parent="1">
          <mxGeometry x="299" y="690" width="120" height="60" as="geometry" />
        </mxCell>
        <mxCell id="Vzbd2Vlic11tbJOyJbIw-60" value="num4=min" style="rounded=0;whiteSpace=wrap;html=1;" vertex="1" parent="1">
          <mxGeometry x="299" y="970" width="120" height="60" as="geometry" />
        </mxCell>
      </root>
    </mxGraphModel>
  </diagram>
</mxfile>
